<?xml version="1.0" encoding="utf-8"?>
<!-- Generator: Adobe Illustrator 24.1.2, SVG Export Plug-In . SVG Version: 6.00 Build 0)  -->
<svg version="1.1" id="Layer_1" xmlns="http://www.w3.org/2000/svg" xmlns:xlink="http://www.w3.org/1999/xlink" x="0px" y="0px"
	 viewBox="0 0 1024 1024" style="enable-background:new 0 0 1024 1024;" xml:space="preserve">
<style type="text/css">
	.st0{clip-path:url(#SVGID_1_);}
	.st1{fill:#FFFFFF;}
</style>
<g id="home_2_" transform="translate(44 20) rotate(90)">
	<g id="Group_82_2_">
		<path id="Combined_Shape-2_2_" d="M1004-604.58v465.46C1004-62,941.48,0.52,864.36,0.52H352.35c-14.36,0-27.91-6.63-36.72-17.97
			L-10.19-436.36c-13.08-16.81-13.08-40.35,0-57.16l325.82-418.91c8.82-11.33,22.37-17.96,36.72-17.97h512.01
			c77.12,0,139.64,62.52,139.64,139.64V-604.58z M910.91-790.76c0-25.71-20.84-46.55-46.55-46.55H375.12L85.51-464.94L375.12-92.57
			h489.25c25.71,0,46.55-20.84,46.55-46.55v-139.64H491.99c-25.71,0-46.55-20.84-46.55-46.55v-279.28
			c0-25.71,20.84-46.55,46.55-46.55h418.91V-790.76z M910.91-558.03H538.54v186.18h372.37V-558.03z"/>
		<g>
			<defs>
				<path id="SVGID_3_" d="M1004-604.58v465.46C1004-62,941.48,0.52,864.36,0.52H352.35c-14.36,0-27.91-6.63-36.72-17.97
					L-10.19-436.36c-13.08-16.81-13.08-40.35,0-57.16l325.82-418.91c8.82-11.33,22.37-17.96,36.72-17.97h512.01
					c77.12,0,139.64,62.52,139.64,139.64V-604.58z M910.91-790.76c0-25.71-20.84-46.55-46.55-46.55H375.12L85.51-464.94
					L375.12-92.57h489.25c25.71,0,46.55-20.84,46.55-46.55v-139.64H491.99c-25.71,0-46.55-20.84-46.55-46.55v-279.28
					c0-25.71,20.84-46.55,46.55-46.55h418.91V-790.76z M910.91-558.03H538.54v186.18h372.37V-558.03z"/>
			</defs>
			<clipPath id="SVGID_1_">
				<use xlink:href="#SVGID_3_"  style="overflow:visible;"/>
			</clipPath>
			<g id="Mask_Group_82_2_" class="st0">
				<g id="COLOR_black_2_">
					
						<rect id="Rectangle_2_" x="-66.56" y="-1023.49" transform="matrix(2.535182e-06 1 -1 2.535182e-06 27.0531 -956.9302)" class="st1" width="1117.11" height="1117.11"/>
				</g>
			</g>
		</g>
	</g>
</g>
</svg>
