<?xml version="1.0" encoding="utf-8"?>
<!-- Generator: Adobe Illustrator 24.1.2, SVG Export Plug-In . SVG Version: 6.00 Build 0)  -->
<svg version="1.1" id="Layer_1" xmlns="http://www.w3.org/2000/svg" xmlns:xlink="http://www.w3.org/1999/xlink" x="0px" y="0px"
	 viewBox="0 0 1024 1024" style="enable-background:new 0 0 1024 1024;" xml:space="preserve">
<style type="text/css">
	.st0{fill:url(#_1_button-6_3_);}
	.st1{clip-path:url(#SVGID_2_);}
	.st2{fill:#FFFFFF;}
	.st3{fill:url(#_1_button-6_4_);}
	.st4{clip-path:url(#SVGID_4_);}
	.st5{fill:url(#_1_button-6_5_);}
	.st6{clip-path:url(#SVGID_6_);}
</style>
<g id="_1_button-3" transform="translate(20 84) rotate(-90)">
	<g id="_1_button-4">
		<g transform="matrix(0, 1, -1, 0, 84, -20)">
			<path id="_1_button-5" d="M0,640.09v-256c0-212.08,171.92-384,384-384h256c212.08,0,384,171.92,384,384v256
				c0,212.08-171.92,384-384,384H384C171.92,1024.09,0,852.16,0,640.09z"/>
		</g>
		<g transform="matrix(0, 1, -1, 0, 84, -20)">
			
				<linearGradient id="_1_button-6_3_" gradientUnits="userSpaceOnUse" x1="3.745" y1="1012.1882" x2="-12.255" y2="1029.7721" gradientTransform="matrix(3.918870e-15 -64 -64 -3.918870e-15 65827 265)">
				<stop  offset="0" style="stop-color:#FFFFFF;stop-opacity:0.4"/>
				<stop  offset="1" style="stop-color:#000000;stop-opacity:0.4"/>
			</linearGradient>
			<path id="_1_button-6" class="st0" d="M0,640.09v-256c0-212.08,171.92-384,384-384h256c212.08,0,384,171.92,384,384v256
				c0,212.08-171.92,384-384,384H384C171.92,1024.09,0,852.16,0,640.09z"/>
		</g>
	</g>
	<g id="home" transform="translate(44 20) rotate(90)">
		<g id="Group_82">
			<path id="Combined_Shape-2" d="M520,648.09H360c-26.51,0-48-21.49-48-48v-176c0-4.94,2.28-9.59,6.18-12.62l144-112
				c5.78-4.49,13.87-4.49,19.65,0l144,112c3.9,3.03,6.17,7.69,6.18,12.62v176c0,26.51-21.49,48-48,48H520z M584,616.09
				c8.84,0,16-7.16,16-16V431.91l-128-99.55l-128,99.55v168.18c0,8.84,7.16,16,16,16h48v-144c0-8.84,7.16-16,16-16h96
				c8.84,0,16,7.16,16,16v144H584z M504,616.09v-128h-64v128H504z"/>
			<g>
				<defs>
					<path id="SVGID_1_" d="M520,648.09H360c-26.51,0-48-21.49-48-48v-176c0-4.94,2.28-9.59,6.18-12.62l144-112
						c5.78-4.49,13.87-4.49,19.65,0l144,112c3.9,3.03,6.17,7.69,6.18,12.62v176c0,26.51-21.49,48-48,48H520z M584,616.09
						c8.84,0,16-7.16,16-16V431.91l-128-99.55l-128,99.55v168.18c0,8.84,7.16,16,16,16h48v-144c0-8.84,7.16-16,16-16h96
						c8.84,0,16,7.16,16,16v144H584z M504,616.09v-128h-64v128H504z"/>
				</defs>
				<clipPath id="SVGID_2_">
					<use xlink:href="#SVGID_1_"  style="overflow:visible;"/>
				</clipPath>
				<g id="Mask_Group_82" class="st1">
					<g id="COLOR_black">
						<rect id="Rectangle" x="280" y="280.09" class="st2" width="384" height="384"/>
					</g>
				</g>
			</g>
		</g>
	</g>
</g>
<g id="_1_button-3_1_" transform="translate(20 84) rotate(-90)">
	<g id="_1_button-4_1_">
		<g transform="matrix(0, 1, -1, 0, 84, -20)">
			<path id="_1_button-5_1_" d="M0,640.09v-256c0-212.08,171.92-384,384-384h256c212.08,0,384,171.92,384,384v256
				c0,212.08-171.92,384-384,384H384C171.92,1024.09,0,852.16,0,640.09z"/>
		</g>
		<g transform="matrix(0, 1, -1, 0, 84, -20)">
			
				<linearGradient id="_1_button-6_4_" gradientUnits="userSpaceOnUse" x1="3.745" y1="1012.1882" x2="-12.255" y2="1029.7721" gradientTransform="matrix(3.918870e-15 -64 -64 -3.918870e-15 65827 265)">
				<stop  offset="0" style="stop-color:#FFFFFF;stop-opacity:0.4"/>
				<stop  offset="1" style="stop-color:#000000;stop-opacity:0.4"/>
			</linearGradient>
			<path id="_1_button-6_1_" class="st3" d="M0,640.09v-256c0-212.08,171.92-384,384-384h256c212.08,0,384,171.92,384,384v256
				c0,212.08-171.92,384-384,384H384C171.92,1024.09,0,852.16,0,640.09z"/>
		</g>
	</g>
	<g id="home_1_" transform="translate(44 20) rotate(90)">
		<g id="Group_82_1_">
			<path id="Combined_Shape-2_1_" d="M520,648.09H360c-26.51,0-48-21.49-48-48v-176c0-4.94,2.28-9.59,6.18-12.62l144-112
				c5.78-4.49,13.87-4.49,19.65,0l144,112c3.9,3.03,6.17,7.69,6.18,12.62v176c0,26.51-21.49,48-48,48H520z M584,616.09
				c8.84,0,16-7.16,16-16V431.91l-128-99.55l-128,99.55v168.18c0,8.84,7.16,16,16,16h48v-144c0-8.84,7.16-16,16-16h96
				c8.84,0,16,7.16,16,16v144H584z M504,616.09v-128h-64v128H504z"/>
			<g>
				<defs>
					<path id="SVGID_3_" d="M520,648.09H360c-26.51,0-48-21.49-48-48v-176c0-4.94,2.28-9.59,6.18-12.62l144-112
						c5.78-4.49,13.87-4.49,19.65,0l144,112c3.9,3.03,6.17,7.69,6.18,12.62v176c0,26.51-21.49,48-48,48H520z M584,616.09
						c8.84,0,16-7.16,16-16V431.91l-128-99.55l-128,99.55v168.18c0,8.84,7.16,16,16,16h48v-144c0-8.84,7.16-16,16-16h96
						c8.84,0,16,7.16,16,16v144H584z M504,616.09v-128h-64v128H504z"/>
				</defs>
				<clipPath id="SVGID_4_">
					<use xlink:href="#SVGID_3_"  style="overflow:visible;"/>
				</clipPath>
				<g id="Mask_Group_82_1_" class="st4">
					<g id="COLOR_black_1_">
						<rect id="Rectangle_1_" x="280" y="280.09" class="st2" width="384" height="384"/>
					</g>
				</g>
			</g>
		</g>
	</g>
</g>
<g id="_1_button-3_2_" transform="translate(20 84) rotate(-90)">
	<g id="_1_button-4_2_">
		<g transform="matrix(0, 1, -1, 0, 84, -20)">
			<path id="_1_button-5_2_" d="M0,640.09v-256c0-212.08,171.92-384,384-384h256c212.08,0,384,171.92,384,384v256
				c0,212.08-171.92,384-384,384H384C171.92,1024.09,0,852.16,0,640.09z"/>
		</g>
		<g transform="matrix(0, 1, -1, 0, 84, -20)">
			
				<linearGradient id="_1_button-6_5_" gradientUnits="userSpaceOnUse" x1="3.745" y1="1012.1882" x2="-12.255" y2="1029.7721" gradientTransform="matrix(3.918870e-15 -64 -64 -3.918870e-15 65827 265)">
				<stop  offset="0" style="stop-color:#FFFFFF;stop-opacity:0.4"/>
				<stop  offset="1" style="stop-color:#000000;stop-opacity:0.4"/>
			</linearGradient>
			<path id="_1_button-6_2_" class="st5" d="M0,640.09v-256c0-212.08,171.92-384,384-384h256c212.08,0,384,171.92,384,384v256
				c0,212.08-171.92,384-384,384H384C171.92,1024.09,0,852.16,0,640.09z"/>
		</g>
	</g>
	<g id="home_2_" transform="translate(44 20) rotate(90)">
		<g id="Group_82_2_">
			<path id="Combined_Shape-2_2_" d="M520,648.09H360c-26.51,0-48-21.49-48-48v-176c0-4.94,2.28-9.59,6.18-12.62l144-112
				c5.78-4.49,13.87-4.49,19.65,0l144,112c3.9,3.03,6.17,7.69,6.18,12.62v176c0,26.51-21.49,48-48,48H520z M584,616.09
				c8.84,0,16-7.16,16-16V431.91l-128-99.55l-128,99.55v168.18c0,8.84,7.16,16,16,16h48v-144c0-8.84,7.16-16,16-16h96
				c8.84,0,16,7.16,16,16v144H584z M504,616.09v-128h-64v128H504z"/>
			<g>
				<defs>
					<path id="SVGID_5_" d="M520,648.09H360c-26.51,0-48-21.49-48-48v-176c0-4.94,2.28-9.59,6.18-12.62l144-112
						c5.78-4.49,13.87-4.49,19.65,0l144,112c3.9,3.03,6.17,7.69,6.18,12.62v176c0,26.51-21.49,48-48,48H520z M584,616.09
						c8.84,0,16-7.16,16-16V431.91l-128-99.55l-128,99.55v168.18c0,8.84,7.16,16,16,16h48v-144c0-8.84,7.16-16,16-16h96
						c8.84,0,16,7.16,16,16v144H584z M504,616.09v-128h-64v128H504z"/>
				</defs>
				<clipPath id="SVGID_6_">
					<use xlink:href="#SVGID_5_"  style="overflow:visible;"/>
				</clipPath>
				<g id="Mask_Group_82_2_" class="st6">
					<g id="COLOR_black_2_">
						<rect id="Rectangle_2_" x="280" y="280.09" class="st2" width="384" height="384"/>
					</g>
				</g>
			</g>
		</g>
	</g>
</g>
</svg>
